<?xml version="1.0" standalone="no"?>
<!DOCTYPE svg PUBLIC "-//W3C//DTD SVG 20010904//EN"
 "http://www.w3.org/TR/2001/REC-SVG-20010904/DTD/svg10.dtd">
<svg version="1.0" xmlns="http://www.w3.org/2000/svg"
 width="581.000000pt" height="522.000000pt" viewBox="0 0 581.000000 522.000000"
 preserveAspectRatio="xMidYMid meet">

<g transform="translate(0.000000,522.000000) scale(0.100000,-0.100000)"
fill="#000000" stroke="none">
<path d="M1635 4865 c-30 -29 -30 -43 -6 -160 50 -236 156 -426 313 -561 140
-119 339 -188 584 -201 148 -7 170 -3 191 41 14 31 14 41 -6 139 -101 502
-430 765 -959 767 -86 0 -95 -2 -117 -25z"/>
<path d="M3291 4693 c-311 -184 -521 -581 -521 -985 0 -54 -1 -98 -3 -98 -2 0
-75 33 -163 74 -289 134 -432 174 -650 183 -158 7 -259 -5 -392 -43 -426 -124
-723 -469 -829 -964 -26 -122 -25 -530 1 -675 115 -631 418 -1228 831 -1640
172 -171 330 -276 495 -326 61 -18 99 -23 200 -23 137 0 115 -6 485 128 151
54 158 53 422 -53 307 -124 597 -76 893 149 360 274 713 888 864 1503 53 216
68 338 73 596 l5 245 -23 -15 c-13 -9 -73 -44 -134 -79 -167 -96 -359 -225
-389 -261 -51 -60 -77 -129 -107 -278 -44 -222 -77 -301 -155 -371 -66 -59
-1136 -723 -1192 -739 -84 -24 -157 80 -108 154 8 13 180 141 380 286 455 326
431 306 431 356 0 47 -41 108 -83 124 -39 15 -80 -5 -212 -103 -275 -204 -623
-448 -647 -454 -40 -10 -94 23 -111 68 -26 68 -53 44 516 475 242 183 282 219
282 257 0 37 -41 89 -77 98 -44 11 -47 9 -351 -201 -494 -341 -494 -341 -535
-341 -64 0 -112 68 -91 128 5 15 70 73 164 145 85 67 265 209 399 316 412 331
452 361 523 397 153 77 266 82 455 21 228 -75 285 -55 621 214 75 61 178 138
227 171 50 33 92 62 94 64 5 5 -85 170 -134 244 -218 327 -572 495 -973 460
-223 -20 -425 -85 -724 -236 -37 -19 -70 -34 -74 -34 -10 0 7 151 27 237 57
252 170 418 395 586 124 93 136 121 83 200 -59 89 -92 96 -188 40z"/>
</g>
</svg>
